<?xml version="1.0" encoding="utf-8"?>
<!-- Generator: Adobe Illustrator 16.0.4, SVG Export Plug-In . SVG Version: 6.00 Build 0)  -->
<!DOCTYPE svg PUBLIC "-//W3C//DTD SVG 1.1//EN" "http://www.w3.org/Graphics/SVG/1.1/DTD/svg11.dtd">
<svg version="1.1" id="Layer_1" xmlns="http://www.w3.org/2000/svg" xmlns:xlink="http://www.w3.org/1999/xlink" x="0px" y="0px"
	 width="24px" height="24px" viewBox="0 0 24 24" enable-background="new 0 0 24 24" xml:space="preserve">
<path fill="#FFFFFF" d="M12,1.02c6.064,0,11,4.934,11,11s-4.936,11-11,11c-6.065,0-11-4.932-11-11S5.935,1.02,12,1.02z M12,0.02
	c-6.627,0-12,5.373-12,12c0,6.626,5.373,12,12,12s12-5.373,12-12C24,5.393,18.627,0.02,12,0.02z M12,12.57L6.008,8h11.983L12,12.57z
	 M12,13.857L6,9.229V16h12V9.229L12,13.857z"/>
</svg>
