<?xml version="1.0" encoding="utf-8"?>
<!-- Generator: Adobe Illustrator 16.0.4, SVG Export Plug-In . SVG Version: 6.00 Build 0)  -->
<!DOCTYPE svg PUBLIC "-//W3C//DTD SVG 1.1//EN" "http://www.w3.org/Graphics/SVG/1.1/DTD/svg11.dtd">
<svg version="1.1" id="Layer_1" xmlns="http://www.w3.org/2000/svg" xmlns:xlink="http://www.w3.org/1999/xlink" x="0px" y="0px"
	 width="24px" height="24px" viewBox="0 0 24 24" enable-background="new 0 0 24 24" xml:space="preserve">
<path fill="#FFFFFF" d="M12,1c6.064,0,11,4.935,11,11c0,6.064-4.936,11-11,11C5.935,23,1,18.064,1,12C1,5.935,5.935,1,12,1z M12,0
	C5.373,0,0,5.373,0,12s5.373,12,12,12s12-5.373,12-12S18.627,0,12,0z M10,10H8v2h2v6h3v-6h1.82L15,10h-2V9.167
	C13,8.689,13.096,8.5,13.559,8.5H15V6h-2.404C10.798,6,10,6.792,10,8.308V10z"/>
</svg>
