<?xml version="1.0" encoding="utf-8"?>
<!-- Generator: Adobe Illustrator 16.0.4, SVG Export Plug-In . SVG Version: 6.00 Build 0)  -->
<!DOCTYPE svg PUBLIC "-//W3C//DTD SVG 1.1//EN" "http://www.w3.org/Graphics/SVG/1.1/DTD/svg11.dtd">
<svg version="1.1" id="Layer_1" xmlns="http://www.w3.org/2000/svg" xmlns:xlink="http://www.w3.org/1999/xlink" x="0px" y="0px"
	 width="24px" height="24px" viewBox="0 0 24 24" enable-background="new 0 0 24 24" xml:space="preserve">
<path fill="#FFFFFF" d="M12,1c6.064,0,11,4.935,11,11c0,6.064-4.936,11-11,11C5.935,23,1,18.064,1,12C1,5.935,5.935,1,12,1z M12,0
	C5.373,0,0,5.373,0,12s5.373,12,12,12s12-5.373,12-12S18.627,0,12,0z M12,6c-3.313,0-6,2.754-6,6.152
	c0,2.718,1.719,5.024,4.104,5.838c0.3,0.057,0.396-0.135,0.396-0.297v-1.146c-1.669,0.373-2.017-0.725-2.017-0.725
	c-0.272-0.711-0.666-0.9-0.666-0.9c-0.544-0.383,0.041-0.374,0.041-0.374c0.603,0.043,0.92,0.635,0.92,0.635
	c0.535,0.939,1.403,0.667,1.746,0.512c0.054-0.399,0.209-0.669,0.381-0.823c-1.333-0.155-2.733-0.684-2.733-3.04
	c0-0.671,0.234-1.22,0.618-1.651c-0.062-0.157-0.268-0.784,0.058-1.631c0,0,0.504-0.165,1.65,0.631
	C10.977,9.045,11.49,8.978,12,8.975c0.51,0.002,1.023,0.07,1.503,0.207c1.146-0.795,1.647-0.631,1.647-0.631
	c0.328,0.847,0.121,1.474,0.061,1.629c0.385,0.431,0.617,0.979,0.617,1.65c0,2.364-1.404,2.884-2.74,3.036
	c0.217,0.189,0.412,0.564,0.412,1.136v1.688c0,0.164,0.096,0.357,0.4,0.297c2.383-0.812,4.1-3.116,4.1-5.834C18,8.754,15.312,6,12,6
	z"/>
</svg>
