<?xml version="1.0" encoding="utf-8"?>
<!-- Generator: Adobe Illustrator 16.0.4, SVG Export Plug-In . SVG Version: 6.00 Build 0)  -->
<!DOCTYPE svg PUBLIC "-//W3C//DTD SVG 1.1//EN" "http://www.w3.org/Graphics/SVG/1.1/DTD/svg11.dtd">
<svg version="1.1" id="Layer_1" xmlns="http://www.w3.org/2000/svg" xmlns:xlink="http://www.w3.org/1999/xlink" x="0px" y="0px"
	 width="24px" height="24px" viewBox="0 0 24 24" enable-background="new 0 0 24 24" xml:space="preserve">
<path fill="#FFFFFF" d="M12,1c6.064,0,11,4.935,11,11c0,6.064-4.936,11-11,11C5.935,23,1,18.064,1,12C1,5.935,5.935,1,12,1z M12,0
	C5.373,0,0,5.373,0,12s5.373,12,12,12s12-5.373,12-12S18.627,0,12,0z M9.5,8.507c0,0.557-0.447,1.007-1,1.007s-1-0.449-1-1.007
	C7.5,7.95,7.947,7.5,8.5,7.5S9.5,7.951,9.5,8.507z M9.5,10.505h-2V16.5h2V10.505z M12.5,10.505h-2V16.5h2v-2.858
	c0-1.721,2.002-1.88,2.002,0V16.5H16.5v-3.356c0-3.281-3.128-3.161-4-1.546V10.505z"/>
</svg>
