<?xml version="1.0" encoding="utf-8"?>
<!-- Generator: Adobe Illustrator 16.0.4, SVG Export Plug-In . SVG Version: 6.00 Build 0)  -->
<!DOCTYPE svg PUBLIC "-//W3C//DTD SVG 1.1//EN" "http://www.w3.org/Graphics/SVG/1.1/DTD/svg11.dtd">
<svg version="1.1" id="Layer_1" xmlns="http://www.w3.org/2000/svg" xmlns:xlink="http://www.w3.org/1999/xlink" x="0px" y="0px"
	 width="24px" height="24px" viewBox="0 0 24 24" enable-background="new 0 0 24 24" xml:space="preserve">
<path fill="#FFFFFF" d="M12,1.02c6.064,0,11,4.934,11,11s-4.936,11-11,11c-6.065,0-11-4.932-11-11S5.935,1.02,12,1.02z M12,0.02
	c-6.627,0-12,5.373-12,12c0,6.626,5.373,12,12,12s12-5.373,12-12C24,5.393,18.627,0.02,12,0.02z M11.712,7.416
	c1.87,0,1.188,2.75,1.188,2.75S15.6,9.41,15.6,11.293v5.29H8.399V7.416H11.712z M12.085,6.5H7.5v11h9v-6.593
	C16.5,9.81,13.508,6.5,12.085,6.5z M14.25,12.459H12.9v-0.458h1.35V12.459z M14.25,13.376H12.9v0.457h1.35V13.376z M14.25,14.749
	H9.749v0.459h4.501V14.749z M11.999,12h-2.25v1.833h2.25V12z"/>
</svg>
