<?xml version="1.0" encoding="utf-8"?>
<!-- Generator: Adobe Illustrator 16.0.4, SVG Export Plug-In . SVG Version: 6.00 Build 0)  -->
<!DOCTYPE svg PUBLIC "-//W3C//DTD SVG 1.1//EN" "http://www.w3.org/Graphics/SVG/1.1/DTD/svg11.dtd">
<svg version="1.1" id="Layer_1" xmlns="http://www.w3.org/2000/svg" xmlns:xlink="http://www.w3.org/1999/xlink" x="0px" y="0px"
	 width="24px" height="24px" viewBox="0 0 24 24" enable-background="new 0 0 24 24" xml:space="preserve">
<path fill="#FFFFFF" d="M12,1c6.065,0,11,4.935,11,11s-4.935,11-11,11S1,18.065,1,12S5.935,1,12,1z M12,0C5.373,0,0,5.373,0,12
	s5.373,12,12,12s12-5.373,12-12S18.627,0,12,0z M8.914,8.267c-0.3,0.672-0.181,1.876-0.133,2.718
	c-0.324,0.179-0.74-0.136-0.975-0.136c-0.245,0-0.538,0.161-0.583,0.401c-0.033,0.173,0.044,0.425,0.6,0.645
	c0.215,0.085,0.727,0.185,0.845,0.464c0.166,0.392-0.855,2.202-2.459,2.466C6.083,14.845,5.993,14.957,6,15.084
	c0.028,0.488,1.121,0.678,1.605,0.754c0.05,0.067,0.09,0.35,0.153,0.566c0.028,0.097,0.102,0.212,0.291,0.212
	c0.246,0,0.656-0.19,1.369-0.072c0.699,0.117,1.356,1.106,2.617,1.106c1.173,0,1.872-0.995,2.545-1.106
	c0.389-0.065,0.725-0.044,1.098,0.029c0.258,0.05,0.488,0.079,0.562-0.175c0.064-0.219,0.104-0.496,0.152-0.561
	c0.479-0.074,1.578-0.265,1.605-0.753c0.007-0.127-0.083-0.239-0.208-0.259c-1.577-0.26-2.629-2.064-2.459-2.466
	c0.118-0.278,0.626-0.378,0.845-0.464c0.407-0.161,0.611-0.358,0.606-0.586c-0.007-0.292-0.357-0.467-0.616-0.467
	c-0.264,0-0.643,0.312-0.949,0.143c0.049-0.849,0.166-2.048-0.133-2.719c-0.566-1.272-1.83-1.916-3.092-1.916
	C10.74,6.35,9.486,6.984,8.914,8.267L8.914,8.267z"/>
</svg>
