<?xml version="1.0" encoding="utf-8"?>
<!-- Generator: Adobe Illustrator 19.2.0, SVG Export Plug-In . SVG Version: 6.00 Build 0)  -->
<svg version="1.1" id="Layer_1" xmlns="http://www.w3.org/2000/svg" xmlns:xlink="http://www.w3.org/1999/xlink" x="0px" y="0px"
	 viewBox="0 0 100 100" style="enable-background:new 0 0 100 100;" xml:space="preserve">
<style type="text/css">
	.st0{fill:#FFFFFF;}
</style>
<title>01</title>
<path class="st0" d="M62.3,18.4c-5.8-3.4-13-3.6-18.9-0.3c-15-6.9-33.7,1.1-36.6,23.5c-2.1,16,12,33.8,13.5,38.8
	c2.7,9.6,8,17.9,16.3,17.9c15,0,40.9-19.7,41.4-46C78.4,34.1,73.2,24.8,62.3,18.4z"/>
<path class="st0" d="M91.1,25C87.7,16.2,74.5-3.7,55.4,3.8c-5.4,1.6-10,5.3-12.6,10.3l4.4-1.8c0,0,5-5.9,7.9-5.2
	c2.3,5,6.8,8.6,12.2,9.6c9.3,2,11.5,15.3,20,19.2l6.1,4.1c0.4,0.3,1.1,0.2,1.4-0.2C95,39.6,95,39.3,95,39
	C94.1,34.4,92.8,29.6,91.1,25z"/>
</svg>
